<?xml version="1.0" standalone="no"?><!DOCTYPE svg PUBLIC "-//W3C//DTD SVG 1.1//EN" "http://www.w3.org/Graphics/SVG/1.1/DTD/svg11.dtd"><svg t="1787214908038" class="icon" viewBox="0 0 1024 1024" version="1.1" xmlns="http://www.w3.org/2000/svg" p-id="9483" xmlns:xlink="http://www.w3.org/1999/xlink" width="200" height="200"><path d="M303.1552 315.2896a25.6 25.6 0 1 1 0-51.2h323.3792a25.6 25.6 0 1 1 0 51.2H303.1552zM303.1552 436.5568a25.6 25.6 0 1 1 0-51.2h235.8784a25.6 25.6 0 1 1 0 51.2h-235.8784zM303.1552 557.824a25.6 25.6 0 1 1 0-51.2H458.24a25.6 25.6 0 0 1 0 51.2h-155.0848z" fill="#2c2c2c" p-id="9484"></path><path d="M431.1552 836.7104a25.6 25.6 0 1 1 0 51.2h-148.224a160.3328 160.3328 0 0 1-160.3328-160.3328V269.4656a160.3328 160.3328 0 0 1 160.3584-160.3328h458.0864a160.3328 160.3328 0 0 1 160.3584 160.3328v158.336a25.6 25.6 0 1 1-51.2 0v-158.336a109.1328 109.1328 0 0 0-109.1584-109.1328H282.9568a109.1328 109.1328 0 0 0-109.1584 109.1328v458.112a109.1328 109.1328 0 0 0 109.1584 109.1328h148.224z" fill="#2c2c2c" p-id="9485"></path><path d="M859.904 584.1664a25.6 25.6 0 1 1 37.248 35.1488l-238.72 252.928a25.6 25.6 0 0 1-39.2704-2.4576l-110.1824-150.528a25.6 25.6 0 0 1 41.3184-30.2592l92.0064 125.7216 217.6-230.5536z" fill="#2c2c2c" p-id="9486"></path></svg>